{
  "accessors": [
    {
      "bufferView": 2,
      "componentType": 5126,
      "count": 5938,
      "max": [
        45.52939987182617,
        -3.946160078048706,
        68.26959991455078
      ],
      "min": [
        -59.512699127197266,
        -23.05900001525879,
        44.04859924316406
      ],
      "type": "VEC3"
    },
    {
      "bufferView": 2,
      "byteOffset": 71256,
      "componentType": 5126,
      "count": 5938,
      "max": [
        1.0,
        1.0,
        1.0
      ],
      "min": [
        -1.0,
        -1.0,
        -1.0
      ],
      "type": "VEC3"
    },
    {
      "bufferView": 3,
      "componentType": 5126,
      "count": 5938,
      "max": [
        1.0,
        1.0,
        1.0,
        1.0
      ],
      "min": [
        -1.0,
        -1.0,
        -1.0,
        -1.0
      ],
      "type": "VEC4"
    },
    {
      "bufferView": 1,
      "componentType": 5126,
      "count": 5938,
      "max": [
        0.9943559765815735,
        0.9912170171737671
      ],
      "min": [
        0.01701500080525875,
        0.00390625
      ],
      "type": "VEC2"
    },
    {
      "bufferView": 0,
      "componentType": 5125,
      "count": 12714,
      "type": "SCALAR"
    },
    {
      "bufferView": 2,
      "byteOffset": 142512,
      "componentType": 5126,
      "count": 8641,
      "max": [
        45.537200927734375,
        -3.9285900592803955,
        73.4031982421875
      ],
      "min": [
        -60.42190170288086,
        -23.070100784301758,
        41.69329833984375
      ],
      "type": "VEC3"
    },
    {
      "bufferView": 2,
      "byteOffset": 246204,
      "componentType": 5126,
      "count": 8641,
      "max": [
        1.0,
        1.0,
        1.0
      ],
      "min": [
        -1.0,
        -1.0,
        -1.0
      ],
      "type": "VEC3"
    },
    {
      "bufferView": 3,
      "byteOffset": 95008,
      "componentType": 5126,
      "count": 8641,
      "max": [
        1.0,
        1.0,
        1.0,
        1.0
      ],
      "min": [
        -1.0,
        -1.0,
        -1.0,
        -1.0
      ],
      "type": "VEC4"
    },
    {
      "bufferView": 1,
      "byteOffset": 47504,
      "componentType": 5126,
      "count": 8641,
      "max": [
        0.9943940043449402,
        0.9938539862632751
      ],
      "min": [
        0.00390625,
        0.00390625
      ],
      "type": "VEC2"
    },
    {
      "bufferView": 0,
      "byteOffset": 50856,
      "componentType": 5125,
      "count": 35229,
      "type": "SCALAR"
    },
    {
      "bufferView": 2,
      "byteOffset": 349896,
      "componentType": 5126,
      "count": 3428,
      "max": [
        45.542999267578125,
        -9.053720474243164,
        67.385498046875
      ],
      "min": [
        -59.925899505615234,
        -18.015399932861328,
        41.50320053100586
      ],
      "type": "VEC3"
    },
    {
      "bufferView": 2,
      "byteOffset": 391032,
      "componentType": 5126,
      "count": 3428,
      "max": [
        1.0,
        1.0,
        1.0
      ],
      "min": [
        -1.0,
        -1.0,
        -1.0
      ],
      "type": "VEC3"
    },
    {
      "bufferView": 3,
      "byteOffset": 233264,
      "componentType": 5126,
      "count": 3428,
      "max": [
        1.0,
        0.9958252906799316,
        1.0,
        1.0
      ],
      "min": [
        -0.9966522455215454,
        -0.9959502220153809,
        -1.0,
        -1.0
      ],
      "type": "VEC4"
    },
    {
      "bufferView": 1,
      "byteOffset": 116632,
      "componentType": 5126,
      "count": 3428,
      "max": [
        0.9941210150718689,
        0.9982550144195557
      ],
      "min": [
        0.0539282001554966,
        0.00390625
      ],
      "type": "VEC2"
    },
    {
      "bufferView": 0,
      "byteOffset": 191772,
      "componentType": 5125,
      "count": 15264,
      "type": "SCALAR"
    },
    {
      "bufferView": 2,
      "byteOffset": 432168,
      "componentType": 5126,
      "count": 19390,
      "max": [
        47.33879852294922,
        -4.2104902267456055,
        68.88939666748047
      ],
      "min": [
        -57.614898681640625,
        -22.97089958190918,
        44.056400299072266
      ],
      "type": "VEC3"
    },
    {
      "bufferView": 2,
      "byteOffset": 664848,
      "componentType": 5126,
      "count": 19390,
      "max": [
        1.0,
        1.0,
        1.0
      ],
      "min": [
        -1.0,
        -1.0,
        -1.0
      ],
      "type": "VEC3"
    },
    {
      "bufferView": 3,
      "byteOffset": 288112,
      "componentType": 5126,
      "count": 19390,
      "max": [
        1.0,
        1.0,
        1.0,
        1.0
      ],
      "min": [
        -1.0,
        -1.0,
        -1.0,
        -1.0
      ],
      "type": "VEC4"
    },
    {
      "bufferView": 1,
      "byteOffset": 144056,
      "componentType": 5126,
      "count": 19390,
      "max": [
        0.9955260157585144,
        0.7632669806480408
      ],
      "min": [
        0.056341398507356644,
        0.00390625
      ],
      "type": "VEC2"
    },
    {
      "bufferView": 0,
      "byteOffset": 252828,
      "componentType": 5125,
      "count": 45144,
      "type": "SCALAR"
    },
    {
      "bufferView": 2,
      "byteOffset": 897528,
      "componentType": 5126,
      "count": 17860,
      "max": [
        49.61980056762695,
        -4.2304301261901855,
        71.23049926757813
      ],
      "min": [
        -57.534400939941406,
        -22.951000213623047,
        44.032100677490234
      ],
      "type": "VEC3"
    },
    {
      "bufferView": 2,
      "byteOffset": 1111848,
      "componentType": 5126,
      "count": 17860,
      "max": [
        1.0,
        1.0,
        1.0
      ],
      "min": [
        -1.0,
        -1.0,
        -1.0
      ],
      "type": "VEC3"
    },
    {
      "bufferView": 3,
      "byteOffset": 598352,
      "componentType": 5126,
      "count": 17860,
      "max": [
        1.0,
        1.0,
        1.0,
        1.0
      ],
      "min": [
        -1.0,
        -1.0,
        -1.0,
        -1.0
      ],
      "type": "VEC4"
    },
    {
      "bufferView": 1,
      "byteOffset": 299176,
      "componentType": 5126,
      "count": 17860,
      "max": [
        0.993366003036499,
        0.9393900036811829
      ],
      "min": [
        0.023569399490952492,
        0.00390625
      ],
      "type": "VEC2"
    },
    {
      "bufferView": 0,
      "byteOffset": 433404,
      "componentType": 5125,
      "count": 49473,
      "type": "SCALAR"
    },
    {
      "bufferView": 2,
      "byteOffset": 1326168,
      "componentType": 5126,
      "count": 3406,
      "max": [
        33.512001037597656,
        -6.195499897003174,
        61.221900939941406
      ],
      "min": [
        -52.22520065307617,
        -20.978599548339844,
        41.73350143432617
      ],
      "type": "VEC3"
    },
    {
      "bufferView": 2,
      "byteOffset": 1367040,
      "componentType": 5126,
      "count": 3406,
      "max": [
        1.0,
        1.0,
        1.0
      ],
      "min": [
        -1.0,
        -1.0,
        -1.0
      ],
      "type": "VEC3"
    },
    {
      "bufferView": 3,
      "byteOffset": 884112,
      "componentType": 5126,
      "count": 3406,
      "max": [
        1.0,
        1.0,
        1.0,
        1.0
      ],
      "min": [
        -1.0,
        -1.0,
        -1.0,
        -1.0
      ],
      "type": "VEC4"
    },
    {
      "bufferView": 1,
      "byteOffset": 442056,
      "componentType": 5126,
      "count": 3406,
      "max": [
        0.995963990688324,
        0.9856650233268738
      ],
      "min": [
        0.00390625,
        0.00390625
      ],
      "type": "VEC2"
    },
    {
      "bufferView": 0,
      "byteOffset": 631296,
      "componentType": 5125,
      "count": 8706,
      "type": "SCALAR"
    },
    {
      "bufferView": 2,
      "byteOffset": 1407912,
      "componentType": 5126,
      "count": 8858,
      "max": [
        58.46849822998047,
        -4.086609840393066,
        64.8113021850586
      ],
      "min": [
        -52.22520065307617,
        -23.01180076599121,
        41.73350143432617
      ],
      "type": "VEC3"
    },
    {
      "bufferView": 2,
      "byteOffset": 1514208,
      "componentType": 5126,
      "count": 8858,
      "max": [
        1.0,
        1.0,
        1.0
      ],
      "min": [
        -1.0,
        -1.0,
        -1.0
      ],
      "type": "VEC3"
    },
    {
      "bufferView": 3,
      "byteOffset": 938608,
      "componentType": 5126,
      "count": 8858,
      "max": [
        1.0,
        1.0,
        1.0,
        1.0
      ],
      "min": [
        -1.0,
        -1.0,
        -1.0,
        -1.0
      ],
      "type": "VEC4"
    },
    {
      "bufferView": 1,
      "byteOffset": 469304,
      "componentType": 5126,
      "count": 8858,
      "max": [
        0.9907649755477905,
        0.99378901720047
      ],
      "min": [
        0.00390625,
        0.0030883599538356066
      ],
      "type": "VEC2"
    },
    {
      "bufferView": 0,
      "byteOffset": 666120,
      "componentType": 5125,
      "count": 29250,
      "type": "SCALAR"
    },
    {
      "bufferView": 2,
      "byteOffset": 1620504,
      "componentType": 5126,
      "count": 5087,
      "max": [
        66.6498031616211,
        -3.920949935913086,
        47.397300720214844
      ],
      "min": [
        -59.784400939941406,
        -23.177600860595703,
        33.65610122680664
      ],
      "type": "VEC3"
    },
    {
      "bufferView": 2,
      "byteOffset": 1681548,
      "componentType": 5126,
      "count": 5087,
      "max": [
        1.0,
        1.0,
        1.0
      ],
      "min": [
        -1.0,
        -1.0,
        -1.0
      ],
      "type": "VEC3"
    },
    {
      "bufferView": 3,
      "byteOffset": 1080336,
      "componentType": 5126,
      "count": 5087,
      "max": [
        1.0,
        1.0,
        0.9999989867210388,
        1.0
      ],
      "min": [
        -1.0,
        -1.0,
        -1.0,
        -1.0
      ],
      "type": "VEC4"
    },
    {
      "bufferView": 1,
      "byteOffset": 540168,
      "componentType": 5126,
      "count": 5087,
      "max": [
        0.9846320152282715,
        0.988211989402771
      ],
      "min": [
        0.0005557539989240468,
        0.00390625
      ],
      "type": "VEC2"
    },
    {
      "bufferView": 0,
      "byteOffset": 783120,
      "componentType": 5125,
      "count": 24564,
      "type": "SCALAR"
    }
  ],
  "asset": {
    "extras": {
      "author": "hungry_drifter (https://sketchfab.com/hungry_drifter)",
      "license": "CC-BY-4.0 (http://creativecommons.org/licenses/by/4.0/)",
      "source": "https://sketchfab.com/3d-models/cargo-ship-b7c97df584824ca682d26daabf401f87",
      "title": "Cargo ship"
    },
    "generator": "Sketchfab-12.67.0",
    "version": "2.0"
  },
  "bufferViews": [
    {
      "buffer": 0,
      "byteLength": 881376,
      "name": "floatBufferViews",
      "target": 34963
    },
    {
      "buffer": 0,
      "byteLength": 580864,
      "byteOffset": 881376,
      "byteStride": 8,
      "name": "floatBufferViews",
      "target": 34962
    },
    {
      "buffer": 0,
      "byteLength": 1742592,
      "byteOffset": 1462240,
      "byteStride": 12,
      "name": "floatBufferViews",
      "target": 34962
    },
    {
      "buffer": 0,
      "byteLength": 1161728,
      "byteOffset": 3204832,
      "byteStride": 16,
      "name": "floatBufferViews",
      "target": 34962
    }
  ],
  "buffers": [
    {
      "byteLength": 4366560,
      "uri": "cargo_ship.bin"
    }
  ],
  "images": [
    {
      "uri": "textures/1001_baseColor.png"
    },
    {
      "uri": "textures/1001_metallicRoughness.png"
    },
    {
      "uri": "textures/1001_normal.png"
    },
    {
      "uri": "textures/1002_baseColor.png"
    },
    {
      "uri": "textures/1002_metallicRoughness.png"
    },
    {
      "uri": "textures/1002_normal.png"
    },
    {
      "uri": "textures/1003_baseColor.png"
    },
    {
      "uri": "textures/1003_metallicRoughness.png"
    },
    {
      "uri": "textures/1003_normal.png"
    }
  ],
  "materials": [
    {
      "doubleSided": true,
      "name": "1001",
      "normalTexture": {
        "index": 2
      },
      "occlusionTexture": {
        "index": 1
      },
      "pbrMetallicRoughness": {
        "baseColorTexture": {
          "index": 0
        },
        "metallicRoughnessTexture": {
          "index": 1
        }
      }
    },
    {
      "doubleSided": true,
      "name": "1002",
      "normalTexture": {
        "index": 5
      },
      "occlusionTexture": {
        "index": 4
      },
      "pbrMetallicRoughness": {
        "baseColorTexture": {
          "index": 3
        },
        "metallicRoughnessTexture": {
          "index": 4
        }
      }
    },
    {
      "doubleSided": true,
      "name": "1003",
      "normalTexture": {
        "index": 8
      },
      "occlusionTexture": {
        "index": 7
      },
      "pbrMetallicRoughness": {
        "baseColorTexture": {
          "index": 6
        },
        "metallicRoughnessTexture": {
          "index": 7
        }
      }
    }
  ],
  "meshes": [
    {
      "name": "Object_0",
      "primitives": [
        {
          "attributes": {
            "NORMAL": 1,
            "POSITION": 0,
            "TANGENT": 2,
            "TEXCOORD_0": 3
          },
          "indices": 4,
          "material": 0,
          "mode": 4
        }
      ]
    },
    {
      "name": "Object_1",
      "primitives": [
        {
          "attributes": {
            "NORMAL": 6,
            "POSITION": 5,
            "TANGENT": 7,
            "TEXCOORD_0": 8
          },
          "indices": 9,
          "material": 0,
          "mode": 4
        }
      ]
    },
    {
      "name": "Object_2",
      "primitives": [
        {
          "attributes": {
            "NORMAL": 11,
            "POSITION": 10,
            "TANGENT": 12,
            "TEXCOORD_0": 13
          },
          "indices": 14,
          "material": 0,
          "mode": 4
        }
      ]
    },
    {
      "name": "Object_3",
      "primitives": [
        {
          "attributes": {
            "NORMAL": 16,
            "POSITION": 15,
            "TANGENT": 17,
            "TEXCOORD_0": 18
          },
          "indices": 19,
          "material": 0,
          "mode": 4
        }
      ]
    },
    {
      "name": "Object_4",
      "primitives": [
        {
          "attributes": {
            "NORMAL": 21,
            "POSITION": 20,
            "TANGENT": 22,
            "TEXCOORD_0": 23
          },
          "indices": 24,
          "material": 0,
          "mode": 4
        }
      ]
    },
    {
      "name": "Object_5",
      "primitives": [
        {
          "attributes": {
            "NORMAL": 26,
            "POSITION": 25,
            "TANGENT": 27,
            "TEXCOORD_0": 28
          },
          "indices": 29,
          "material": 0,
          "mode": 4
        }
      ]
    },
    {
      "name": "Object_6",
      "primitives": [
        {
          "attributes": {
            "NORMAL": 31,
            "POSITION": 30,
            "TANGENT": 32,
            "TEXCOORD_0": 33
          },
          "indices": 34,
          "material": 2,
          "mode": 4
        }
      ]
    },
    {
      "name": "Object_7",
      "primitives": [
        {
          "attributes": {
            "NORMAL": 36,
            "POSITION": 35,
            "TANGENT": 37,
            "TEXCOORD_0": 38
          },
          "indices": 39,
          "material": 1,
          "mode": 4
        }
      ]
    }
  ],
  "nodes": [
    {
      "children": [
        1
      ],
      "matrix": [
        1.0,
        0.0,
        0.0,
        0.0,
        0.0,
        2.220446049250313e-16,
        -1.0,
        0.0,
        0.0,
        1.0,
        2.220446049250313e-16,
        0.0,
        0.0,
        0.0,
        0.0,
        1.0
      ],
      "name": "Sketchfab_model"
    },
    {
      "children": [
        2,
        3,
        4,
        5,
        6,
        7,
        8,
        9
      ],
      "name": "cargo1.obj.cleaner.materialmerger.gles"
    },
    {
      "mesh": 0,
      "name": "Object_2"
    },
    {
      "mesh": 1,
      "name": "Object_3"
    },
    {
      "mesh": 2,
      "name": "Object_4"
    },
    {
      "mesh": 3,
      "name": "Object_5"
    },
    {
      "mesh": 4,
      "name": "Object_6"
    },
    {
      "mesh": 5,
      "name": "Object_7"
    },
    {
      "mesh": 6,
      "name": "Object_8"
    },
    {
      "mesh": 7,
      "name": "Object_9"
    }
  ],
  "samplers": [
    {
      "magFilter": 9729,
      "minFilter": 9987,
      "wrapS": 10497,
      "wrapT": 10497
    }
  ],
  "scene": 0,
  "scenes": [
    {
      "name": "Sketchfab_Scene",
      "nodes": [
        0
      ]
    }
  ],
  "textures": [
    {
      "sampler": 0,
      "source": 0
    },
    {
      "sampler": 0,
      "source": 1
    },
    {
      "sampler": 0,
      "source": 2
    },
    {
      "sampler": 0,
      "source": 3
    },
    {
      "sampler": 0,
      "source": 4
    },
    {
      "sampler": 0,
      "source": 5
    },
    {
      "sampler": 0,
      "source": 6
    },
    {
      "sampler": 0,
      "source": 7
    },
    {
      "sampler": 0,
      "source": 8
    }
  ]
}
