<?xml version="1.0" encoding="UTF-8"?>
<svg width="700pt" height="700pt" version="1.1" viewBox="0 0 700 700" xmlns="http://www.w3.org/2000/svg">
 <path d="m350 23.332c141.75 0 256.67 114.91 256.67 256.67s-114.91 256.67-256.67 256.67-256.67-114.91-256.67-256.67 114.91-256.67 256.67-256.67zm0 23.336c-128.87 0-233.33 104.46-233.33 233.33s104.46 233.33 233.33 233.33 233.33-104.46 233.33-233.33-104.46-233.33-233.33-233.33zm0 23.332c115.98 0 210 94.02 210 210s-94.02 210-210 210-210-94.02-210-210 94.02-210 210-210z" fill-rule="evenodd"/>
</svg>
