{
  "accessors": [
    {
      "bufferView": 2,
      "componentType": 5126,
      "count": 10418,
      "max": [
        2205.63623046875,
        1271.954833984375,
        410.3542175292969
      ],
      "min": [
        -1827.41015625,
        -293.4867248535156,
        -410.3785705566406
      ],
      "type": "VEC3"
    },
    {
      "bufferView": 2,
      "byteOffset": 125016,
      "componentType": 5126,
      "count": 10418,
      "max": [
        1.0,
        1.0,
        1.0
      ],
      "min": [
        -1.0,
        -1.0,
        -1.0
      ],
      "type": "VEC3"
    },
    {
      "bufferView": 3,
      "componentType": 5126,
      "count": 10418,
      "max": [
        1.0,
        1.0,
        1.0,
        1.0
      ],
      "min": [
        -1.0,
        -1.0,
        -1.0,
        -1.0
      ],
      "type": "VEC4"
    },
    {
      "bufferView": 1,
      "componentType": 5126,
      "count": 10418,
      "max": [
        0.9875620603561401,
        0.9909911751747131
      ],
      "min": [
        0.006937872618436813,
        0.01301734708249569
      ],
      "type": "VEC2"
    },
    {
      "bufferView": 0,
      "componentType": 5125,
      "count": 25602,
      "type": "SCALAR"
    }
  ],
  "asset": {
    "extras": {
      "author": "Sergei (https://sketchfab.com/sergeif)",
      "license": "CC-BY-4.0 (http://creativecommons.org/licenses/by/4.0/)",
      "source": "https://sketchfab.com/3d-models/yacht-0dd451f295d049cea20c17d3ffa87ee3",
      "title": "Yacht"
    },
    "generator": "Sketchfab-12.67.0",
    "version": "2.0"
  },
  "bufferViews": [
    {
      "buffer": 0,
      "byteLength": 102408,
      "name": "floatBufferViews",
      "target": 34963
    },
    {
      "buffer": 0,
      "byteLength": 83344,
      "byteOffset": 102408,
      "byteStride": 8,
      "name": "floatBufferViews",
      "target": 34962
    },
    {
      "buffer": 0,
      "byteLength": 250032,
      "byteOffset": 185752,
      "byteStride": 12,
      "name": "floatBufferViews",
      "target": 34962
    },
    {
      "buffer": 0,
      "byteLength": 166688,
      "byteOffset": 435784,
      "byteStride": 16,
      "name": "floatBufferViews",
      "target": 34962
    }
  ],
  "buffers": [
    {
      "byteLength": 602472,
      "uri": "yacht.bin"
    }
  ],
  "images": [
    {
      "uri": "textures/011_-_Default_baseColor.png"
    },
    {
      "uri": "textures/011_-_Default_metallicRoughness.png"
    },
    {
      "uri": "textures/011_-_Default_normal.png"
    }
  ],
  "materials": [
    {
      "doubleSided": true,
      "name": "01_-_Default",
      "normalTexture": {
        "index": 2
      },
      "occlusionTexture": {
        "index": 1
      },
      "pbrMetallicRoughness": {
        "baseColorTexture": {
          "index": 0
        },
        "metallicFactor": 0.5,
        "metallicRoughnessTexture": {
          "index": 1
        }
      }
    }
  ],
  "meshes": [
    {
      "name": "korpus1_01 - Default_0",
      "primitives": [
        {
          "attributes": {
            "NORMAL": 1,
            "POSITION": 0,
            "TANGENT": 2,
            "TEXCOORD_0": 3
          },
          "indices": 4,
          "material": 0,
          "mode": 4
        }
      ]
    }
  ],
  "nodes": [
    {
      "children": [
        1
      ],
      "matrix": [
        1.0,
        -2.220446049250313e-16,
        -1.232595164407831e-31,
        0.0,
        2.465190328815662e-32,
        -4.440892098500626e-16,
        1.0,
        0.0,
        -2.220446049250313e-16,
        -1.0,
        -4.440892098500626e-16,
        0.0,
        -1.2980610510082702e-15,
        -11.691888809204102,
        -2.4933815002441433,
        1.0
      ],
      "name": "Sketchfab_model"
    },
    {
      "children": [
        2
      ],
      "matrix": [
        1.0,
        0.0,
        0.0,
        0.0,
        0.0,
        -1.0,
        0.0,
        0.0,
        0.0,
        0.0,
        -1.0,
        0.0,
        0.0,
        0.0,
        0.0,
        1.0
      ],
      "name": "b59872240f134a49967b832bb03790bb.fbx"
    },
    {
      "children": [
        3
      ],
      "name": "RootNode"
    },
    {
      "children": [
        4
      ],
      "matrix": [
        -2.682208954940535e-09,
        -0.009999999776482112,
        -1.4901160871882979e-09,
        0.0,
        -1.7881397040841928e-09,
        -1.490115608682185e-09,
        0.009999999776482311,
        0.0,
        -0.009999999776482063,
        2.682209220283832e-09,
        -1.7881393055141359e-09,
        0.0,
        0.0,
        0.6445134878158569,
        0.9536135792732239,
        1.0
      ],
      "name": "korpus1"
    },
    {
      "mesh": 0,
      "name": "korpus1_01 - Default_0"
    }
  ],
  "samplers": [
    {
      "magFilter": 9729,
      "minFilter": 9987,
      "wrapS": 10497,
      "wrapT": 10497
    }
  ],
  "scene": 0,
  "scenes": [
    {
      "name": "Sketchfab_Scene",
      "nodes": [
        0
      ]
    }
  ],
  "textures": [
    {
      "sampler": 0,
      "source": 0
    },
    {
      "sampler": 0,
      "source": 1
    },
    {
      "sampler": 0,
      "source": 2
    }
  ]
}
