{
    "asset" : {
        "generator" : "Khronos glTF Blender I/O v1.8.19",
        "version" : "2.0"
    },
    "scene" : 0,
    "scenes" : [
        {
            "name" : "Scene",
            "nodes" : [
                0,
                1,
                2
            ]
        }
    ],
    "nodes" : [
        {
            "mesh" : 0,
            "name" : "Door1"
        },
        {
            "mesh" : 1,
            "name" : "Frame"
        },
        {
            "mesh" : 2,
            "name" : "Lock"
        }
    ],
    "materials" : [
        {
            "doubleSided" : true,
            "name" : "Light Brown",
            "pbrMetallicRoughness" : {
                "baseColorFactor" : [
                    0.2738305926322937,
                    0.09811171144247055,
                    0.026081904768943787,
                    1
                ],
                "metallicFactor" : 0,
                "roughnessFactor" : 0.5
            }
        },
        {
            "doubleSided" : true,
            "name" : "Brown",
            "pbrMetallicRoughness" : {
                "baseColorFactor" : [
                    0.18446876108646393,
                    0.08838407695293427,
                    0.020159859210252762,
                    1
                ],
                "metallicFactor" : 0,
                "roughnessFactor" : 0.5
            }
        },
        {
            "doubleSided" : true,
            "name" : "Metal",
            "pbrMetallicRoughness" : {
                "baseColorFactor" : [
                    0.7500619292259216,
                    0.747089684009552,
                    0.8000000715255737,
                    1
                ],
                "metallicFactor" : 0,
                "roughnessFactor" : 0.5
            }
        }
    ],
    "meshes" : [
        {
            "name" : "Door1",
            "primitives" : [
                {
                    "attributes" : {
                        "POSITION" : 0,
                        "NORMAL" : 1,
                        "TEXCOORD_0" : 2
                    },
                    "indices" : 3,
                    "material" : 0
                }
            ]
        },
        {
            "name" : "Frame",
            "primitives" : [
                {
                    "attributes" : {
                        "POSITION" : 4,
                        "NORMAL" : 5,
                        "TEXCOORD_0" : 6
                    },
                    "indices" : 7,
                    "material" : 1
                }
            ]
        },
        {
            "name" : "Cylinder.006",
            "primitives" : [
                {
                    "attributes" : {
                        "POSITION" : 8,
                        "NORMAL" : 9,
                        "TEXCOORD_0" : 10
                    },
                    "indices" : 11,
                    "material" : 2
                }
            ]
        }
    ],
    "accessors" : [
        {
            "bufferView" : 0,
            "componentType" : 5126,
            "count" : 456,
            "max" : [
                50,
                200,
                3.125
            ],
            "min" : [
                -50,
                0,
                -3.125
            ],
            "type" : "VEC3"
        },
        {
            "bufferView" : 1,
            "componentType" : 5126,
            "count" : 456,
            "type" : "VEC3"
        },
        {
            "bufferView" : 2,
            "componentType" : 5126,
            "count" : 456,
            "type" : "VEC2"
        },
        {
            "bufferView" : 3,
            "componentType" : 5123,
            "count" : 756,
            "type" : "SCALAR"
        },
        {
            "bufferView" : 4,
            "componentType" : 5126,
            "count" : 108,
            "max" : [
                60.000003814697266,
                208.75001525878906,
                7.000003814697266
            ],
            "min" : [
                -60.000003814697266,
                0,
                -7.000003814697266
            ],
            "type" : "VEC3"
        },
        {
            "bufferView" : 5,
            "componentType" : 5126,
            "count" : 108,
            "type" : "VEC3"
        },
        {
            "bufferView" : 6,
            "componentType" : 5126,
            "count" : 108,
            "type" : "VEC2"
        },
        {
            "bufferView" : 7,
            "componentType" : 5123,
            "count" : 168,
            "type" : "SCALAR"
        },
        {
            "bufferView" : 8,
            "componentType" : 5126,
            "count" : 916,
            "max" : [
                47.37184524536133,
                102.75347137451172,
                8.861567497253418
            ],
            "min" : [
                31.75433349609375,
                84.74653625488281,
                -8.861567497253418
            ],
            "type" : "VEC3"
        },
        {
            "bufferView" : 9,
            "componentType" : 5126,
            "count" : 916,
            "type" : "VEC3"
        },
        {
            "bufferView" : 10,
            "componentType" : 5126,
            "count" : 916,
            "type" : "VEC2"
        },
        {
            "bufferView" : 11,
            "componentType" : 5123,
            "count" : 3426,
            "type" : "SCALAR"
        }
    ],
    "bufferViews" : [
        {
            "buffer" : 0,
            "byteLength" : 5472,
            "byteOffset" : 0
        },
        {
            "buffer" : 0,
            "byteLength" : 5472,
            "byteOffset" : 5472
        },
        {
            "buffer" : 0,
            "byteLength" : 3648,
            "byteOffset" : 10944
        },
        {
            "buffer" : 0,
            "byteLength" : 1512,
            "byteOffset" : 14592
        },
        {
            "buffer" : 0,
            "byteLength" : 1296,
            "byteOffset" : 16104
        },
        {
            "buffer" : 0,
            "byteLength" : 1296,
            "byteOffset" : 17400
        },
        {
            "buffer" : 0,
            "byteLength" : 864,
            "byteOffset" : 18696
        },
        {
            "buffer" : 0,
            "byteLength" : 336,
            "byteOffset" : 19560
        },
        {
            "buffer" : 0,
            "byteLength" : 10992,
            "byteOffset" : 19896
        },
        {
            "buffer" : 0,
            "byteLength" : 10992,
            "byteOffset" : 30888
        },
        {
            "buffer" : 0,
            "byteLength" : 7328,
            "byteOffset" : 41880
        },
        {
            "buffer" : 0,
            "byteLength" : 6852,
            "byteOffset" : 49208
        }
    ],
    "buffers" : [
        {
            "byteLength" : 56060,
            "uri" : "Door.bin"
        }
    ]
}
