{
    "asset" : {
        "generator" : "Khronos glTF Blender I/O v1.8.19",
        "version" : "2.0"
    },
    "scene" : 0,
    "scenes" : [
        {
            "name" : "Scene",
            "nodes" : [
                0,
                1,
                2
            ]
        }
    ],
    "nodes" : [
        {
            "mesh" : 0,
            "name" : "Door1.001",
            "scale" : [
                0.014999999664723873,
                0.014999999664723873,
                0.014999999664723873
            ]
        },
        {
            "mesh" : 1,
            "name" : "Frame.001",
            "scale" : [
                0.014999999664723873,
                0.014999999664723873,
                0.014999999664723873
            ]
        },
        {
            "mesh" : 2,
            "name" : "Lock.001",
            "scale" : [
                0.014999999664723873,
                0.014999999664723873,
                0.014999999664723873
            ]
        }
    ],
    "materials" : [
        {
            "alphaMode" : "BLEND",
            "doubleSided" : true,
            "name" : "Red",
            "pbrMetallicRoughness" : {
                "baseColorFactor" : [
                    1,
                    0.014285743236541748,
                    0.018920183181762695,
                    0.800000011920929
                ],
                "metallicFactor" : 0,
                "roughnessFactor" : 0.5
            }
        }
    ],
    "meshes" : [
        {
            "name" : "Door1",
            "primitives" : [
                {
                    "attributes" : {
                        "POSITION" : 0,
                        "NORMAL" : 1,
                        "TEXCOORD_0" : 2
                    },
                    "indices" : 3,
                    "material" : 0
                }
            ]
        },
        {
            "name" : "Frame",
            "primitives" : [
                {
                    "attributes" : {
                        "POSITION" : 4,
                        "NORMAL" : 5,
                        "TEXCOORD_0" : 6
                    },
                    "indices" : 7,
                    "material" : 0
                }
            ]
        },
        {
            "name" : "Cylinder.006",
            "primitives" : [
                {
                    "attributes" : {
                        "POSITION" : 8,
                        "NORMAL" : 9,
                        "TEXCOORD_0" : 10
                    },
                    "indices" : 11,
                    "material" : 0
                }
            ]
        }
    ],
    "accessors" : [
        {
            "bufferView" : 0,
            "componentType" : 5126,
            "count" : 530,
            "max" : [
                50,
                200,
                3.125
            ],
            "min" : [
                -50,
                0,
                -3.125
            ],
            "type" : "VEC3"
        },
        {
            "bufferView" : 1,
            "componentType" : 5126,
            "count" : 530,
            "type" : "VEC3"
        },
        {
            "bufferView" : 2,
            "componentType" : 5126,
            "count" : 530,
            "type" : "VEC2"
        },
        {
            "bufferView" : 3,
            "componentType" : 5123,
            "count" : 756,
            "type" : "SCALAR"
        },
        {
            "bufferView" : 4,
            "componentType" : 5126,
            "count" : 129,
            "max" : [
                60.000003814697266,
                208.75001525878906,
                7.000003814697266
            ],
            "min" : [
                -60.000003814697266,
                0,
                -7.000003814697266
            ],
            "type" : "VEC3"
        },
        {
            "bufferView" : 5,
            "componentType" : 5126,
            "count" : 129,
            "type" : "VEC3"
        },
        {
            "bufferView" : 6,
            "componentType" : 5126,
            "count" : 129,
            "type" : "VEC2"
        },
        {
            "bufferView" : 7,
            "componentType" : 5123,
            "count" : 168,
            "type" : "SCALAR"
        },
        {
            "bufferView" : 8,
            "componentType" : 5126,
            "count" : 1039,
            "max" : [
                47.37184524536133,
                102.75347137451172,
                8.861567497253418
            ],
            "min" : [
                31.75433349609375,
                84.74653625488281,
                -8.861567497253418
            ],
            "type" : "VEC3"
        },
        {
            "bufferView" : 9,
            "componentType" : 5126,
            "count" : 1039,
            "type" : "VEC3"
        },
        {
            "bufferView" : 10,
            "componentType" : 5126,
            "count" : 1039,
            "type" : "VEC2"
        },
        {
            "bufferView" : 11,
            "componentType" : 5123,
            "count" : 3426,
            "type" : "SCALAR"
        }
    ],
    "bufferViews" : [
        {
            "buffer" : 0,
            "byteLength" : 6360,
            "byteOffset" : 0
        },
        {
            "buffer" : 0,
            "byteLength" : 6360,
            "byteOffset" : 6360
        },
        {
            "buffer" : 0,
            "byteLength" : 4240,
            "byteOffset" : 12720
        },
        {
            "buffer" : 0,
            "byteLength" : 1512,
            "byteOffset" : 16960
        },
        {
            "buffer" : 0,
            "byteLength" : 1548,
            "byteOffset" : 18472
        },
        {
            "buffer" : 0,
            "byteLength" : 1548,
            "byteOffset" : 20020
        },
        {
            "buffer" : 0,
            "byteLength" : 1032,
            "byteOffset" : 21568
        },
        {
            "buffer" : 0,
            "byteLength" : 336,
            "byteOffset" : 22600
        },
        {
            "buffer" : 0,
            "byteLength" : 12468,
            "byteOffset" : 22936
        },
        {
            "buffer" : 0,
            "byteLength" : 12468,
            "byteOffset" : 35404
        },
        {
            "buffer" : 0,
            "byteLength" : 8312,
            "byteOffset" : 47872
        },
        {
            "buffer" : 0,
            "byteLength" : 6852,
            "byteOffset" : 56184
        }
    ],
    "buffers" : [
        {
            "byteLength" : 63036,
            "uri" : "Door_Highlighted.bin"
        }
    ]
}
