{
    "asset" : {
        "generator" : "Khronos glTF Blender I/O v1.8.19",
        "version" : "2.0"
    },
    "scene" : 0,
    "scenes" : [
        {
            "name" : "Scene",
            "nodes" : [
                0,
                1,
                2,
                3,
                4
            ]
        }
    ],
    "nodes" : [
        {
            "mesh" : 0,
            "name" : "Cylinder.129",
            "rotation" : [
                -0.7071068286895752,
                0,
                0,
                0.7071067094802856
            ],
            "scale" : [
                0.43431979417800903,
                0.43431979417800903,
                0.43431979417800903
            ],
            "translation" : [
                0,
                0.5714600086212158,
                0
            ]
        },
        {
            "mesh" : 1,
            "name" : "Cube",
            "scale" : [
                -0.14452089369297028,
                -0.034343261271715164,
                0.012337060645222664
            ],
            "translation" : [
                0.16073495149612427,
                0.8685719966888428,
                0.0037356442771852016
            ]
        },
        {
            "mesh" : 2,
            "name" : "Cube.001",
            "scale" : [
                -0.14452089369297028,
                -0.034343261271715164,
                0.012337060645222664
            ],
            "translation" : [
                -0.15513822436332703,
                0.8692127466201782,
                0.0014852555468678474
            ]
        },
        {
            "mesh" : 3,
            "name" : "Cylinder",
            "rotation" : [
                0.7071068286895752,
                0,
                0,
                0.7071068286895752
            ],
            "scale" : [
                0.4699999988079071,
                0.14000004529953003,
                0.4699999988079071
            ],
            "translation" : [
                0,
                0.5741697549819946,
                -0.14284642040729523
            ]
        },
        {
            "mesh" : 4,
            "name" : "Cube.002",
            "scale" : [
                -0.14452089369297028,
                -0.034343261271715164,
                0.012337060645222664
            ],
            "translation" : [
                0.16073495149612427,
                0.5492482781410217,
                0.0037356442771852016
            ]
        }
    ],
    "materials" : [
        {
            "doubleSided" : true,
            "name" : "Yellow",
            "pbrMetallicRoughness" : {
                "baseColorFactor" : [
                    0.7654275894165039,
                    0.8000000715255737,
                    0.019433744251728058,
                    1
                ],
                "metallicFactor" : 0,
                "roughnessFactor" : 0.5
            }
        },
        {
            "doubleSided" : true,
            "name" : "oeils",
            "pbrMetallicRoughness" : {
                "baseColorFactor" : [
                    0.0802198275923729,
                    0.04970657452940941,
                    0.012286489829421043,
                    0
                ],
                "metallicFactor" : 0,
                "roughnessFactor" : 0.690034806728363
            }
        },
        {
            "doubleSided" : true,
            "name" : "Eyes",
            "pbrMetallicRoughness" : {
                "baseColorFactor" : [
                    0,
                    0,
                    0,
                    1
                ],
                "metallicFactor" : 0,
                "roughnessFactor" : 0.5
            }
        },
        {
            "doubleSided" : true,
            "name" : "Teeth",
            "pbrMetallicRoughness" : {
                "baseColorFactor" : [
                    0.800000011920929,
                    0.800000011920929,
                    0.800000011920929,
                    1
                ],
                "metallicFactor" : 0,
                "roughnessFactor" : 0.5
            }
        },
        {
            "doubleSided" : true,
            "name" : "Mouth Inside",
            "pbrMetallicRoughness" : {
                "baseColorFactor" : [
                    0.20791234076023102,
                    0.20791234076023102,
                    0.04904604330658913,
                    1
                ],
                "metallicFactor" : 0,
                "roughnessFactor" : 0.5
            }
        },
        {
            "doubleSided" : true,
            "name" : "Lips",
            "pbrMetallicRoughness" : {
                "baseColorFactor" : [
                    0,
                    0,
                    0,
                    1
                ],
                "metallicFactor" : 0,
                "roughnessFactor" : 0.5
            }
        },
        {
            "doubleSided" : true,
            "name" : "Red",
            "pbrMetallicRoughness" : {
                "baseColorFactor" : [
                    0.8000000715255737,
                    0,
                    0.0015051120426505804,
                    1
                ],
                "metallicFactor" : 0,
                "roughnessFactor" : 0.5
            }
        }
    ],
    "meshes" : [
        {
            "name" : "Cylinder.042",
            "primitives" : [
                {
                    "attributes" : {
                        "POSITION" : 0,
                        "NORMAL" : 1
                    },
                    "indices" : 2,
                    "material" : 0
                },
                {
                    "attributes" : {
                        "POSITION" : 3,
                        "NORMAL" : 4
                    },
                    "indices" : 5,
                    "material" : 1
                },
                {
                    "attributes" : {
                        "POSITION" : 6,
                        "NORMAL" : 7
                    },
                    "indices" : 8,
                    "material" : 2
                },
                {
                    "attributes" : {
                        "POSITION" : 9,
                        "NORMAL" : 10
                    },
                    "indices" : 11,
                    "material" : 3
                },
                {
                    "attributes" : {
                        "POSITION" : 12,
                        "NORMAL" : 13
                    },
                    "indices" : 14,
                    "material" : 4
                },
                {
                    "attributes" : {
                        "POSITION" : 15,
                        "NORMAL" : 16
                    },
                    "indices" : 17,
                    "material" : 5
                }
            ]
        },
        {
            "name" : "Cube.001",
            "primitives" : [
                {
                    "attributes" : {
                        "POSITION" : 18,
                        "NORMAL" : 19,
                        "TEXCOORD_0" : 20
                    },
                    "indices" : 21,
                    "material" : 6
                }
            ]
        },
        {
            "name" : "Cube.002",
            "primitives" : [
                {
                    "attributes" : {
                        "POSITION" : 22,
                        "NORMAL" : 23,
                        "TEXCOORD_0" : 24
                    },
                    "indices" : 21,
                    "material" : 6
                }
            ]
        },
        {
            "name" : "Cylinder",
            "primitives" : [
                {
                    "attributes" : {
                        "POSITION" : 25,
                        "NORMAL" : 26,
                        "TEXCOORD_0" : 27
                    },
                    "indices" : 28,
                    "material" : 6
                }
            ]
        },
        {
            "name" : "Cube.003",
            "primitives" : [
                {
                    "attributes" : {
                        "POSITION" : 29,
                        "NORMAL" : 30,
                        "TEXCOORD_0" : 31
                    },
                    "indices" : 32,
                    "material" : 6
                }
            ]
        }
    ],
    "accessors" : [
        {
            "bufferView" : 0,
            "componentType" : 5126,
            "count" : 194,
            "max" : [
                1,
                0.4604901969432831,
                1
            ],
            "min" : [
                -1,
                -7.794731970989233e-09,
                -1
            ],
            "type" : "VEC3"
        },
        {
            "bufferView" : 1,
            "componentType" : 5126,
            "count" : 194,
            "type" : "VEC3"
        },
        {
            "bufferView" : 2,
            "componentType" : 5123,
            "count" : 1152,
            "type" : "SCALAR"
        },
        {
            "bufferView" : 3,
            "componentType" : 5126,
            "count" : 137,
            "max" : [
                0.5749760866165161,
                0.048038776963949203,
                0.6172375082969666
            ],
            "min" : [
                -0.5749760866165161,
                -0.03346702829003334,
                -0.7416735291481018
            ],
            "type" : "VEC3"
        },
        {
            "bufferView" : 4,
            "componentType" : 5126,
            "count" : 137,
            "type" : "VEC3"
        },
        {
            "bufferView" : 5,
            "componentType" : 5123,
            "count" : 396,
            "type" : "SCALAR"
        },
        {
            "bufferView" : 6,
            "componentType" : 5126,
            "count" : 108,
            "max" : [
                0.5250465273857117,
                0.048038776963949203,
                0.6172375082969666
            ],
            "min" : [
                -0.5250465273857117,
                -0.034466203302145004,
                -0.005472593009471893
            ],
            "type" : "VEC3"
        },
        {
            "bufferView" : 7,
            "componentType" : 5126,
            "count" : 108,
            "type" : "VEC3"
        },
        {
            "bufferView" : 8,
            "componentType" : 5123,
            "count" : 522,
            "type" : "SCALAR"
        },
        {
            "bufferView" : 9,
            "componentType" : 5126,
            "count" : 40,
            "max" : [
                0.5480363965034485,
                -0.012860020622611046,
                -0.21331705152988434
            ],
            "min" : [
                -0.5480363965034485,
                -0.020720625296235085,
                -0.46956437826156616
            ],
            "type" : "VEC3"
        },
        {
            "bufferView" : 10,
            "componentType" : 5126,
            "count" : 40,
            "type" : "VEC3"
        },
        {
            "bufferView" : 11,
            "componentType" : 5123,
            "count" : 168,
            "type" : "SCALAR"
        },
        {
            "bufferView" : 12,
            "componentType" : 5126,
            "count" : 20,
            "max" : [
                0.5486608147621155,
                -0.01451998483389616,
                -0.22300375998020172
            ],
            "min" : [
                -0.5486608147621155,
                -0.014520076103508472,
                -0.7121480703353882
            ],
            "type" : "VEC3"
        },
        {
            "bufferView" : 13,
            "componentType" : 5126,
            "count" : 20,
            "type" : "VEC3"
        },
        {
            "bufferView" : 14,
            "componentType" : 5123,
            "count" : 54,
            "type" : "SCALAR"
        },
        {
            "bufferView" : 15,
            "componentType" : 5126,
            "count" : 112,
            "max" : [
                0.5749760866165161,
                0.04147549718618393,
                -0.19699247181415558
            ],
            "min" : [
                -0.5749760866165161,
                -0.03729450702667236,
                -0.7416735291481018
            ],
            "type" : "VEC3"
        },
        {
            "bufferView" : 16,
            "componentType" : 5126,
            "count" : 112,
            "type" : "VEC3"
        },
        {
            "bufferView" : 17,
            "componentType" : 5123,
            "count" : 528,
            "type" : "SCALAR"
        },
        {
            "bufferView" : 18,
            "componentType" : 5126,
            "count" : 242,
            "max" : [
                0.6946530342102051,
                9.392218589782715,
                1
            ],
            "min" : [
                -0.629169225692749,
                0.2812741994857788,
                -1
            ],
            "type" : "VEC3"
        },
        {
            "bufferView" : 19,
            "componentType" : 5126,
            "count" : 242,
            "type" : "VEC3"
        },
        {
            "bufferView" : 20,
            "componentType" : 5126,
            "count" : 242,
            "type" : "VEC2"
        },
        {
            "bufferView" : 21,
            "componentType" : 5123,
            "count" : 420,
            "type" : "SCALAR"
        },
        {
            "bufferView" : 22,
            "componentType" : 5126,
            "count" : 242,
            "max" : [
                0.6946530342102051,
                9.392218589782715,
                1
            ],
            "min" : [
                -0.629169225692749,
                0.2812741994857788,
                -1
            ],
            "type" : "VEC3"
        },
        {
            "bufferView" : 23,
            "componentType" : 5126,
            "count" : 242,
            "type" : "VEC3"
        },
        {
            "bufferView" : 24,
            "componentType" : 5126,
            "count" : 242,
            "type" : "VEC2"
        },
        {
            "bufferView" : 25,
            "componentType" : 5126,
            "count" : 565,
            "max" : [
                1,
                1,
                1.0000001192092896
            ],
            "min" : [
                -1,
                -1,
                -0.9999998807907104
            ],
            "type" : "VEC3"
        },
        {
            "bufferView" : 26,
            "componentType" : 5126,
            "count" : 565,
            "type" : "VEC3"
        },
        {
            "bufferView" : 27,
            "componentType" : 5126,
            "count" : 565,
            "type" : "VEC2"
        },
        {
            "bufferView" : 28,
            "componentType" : 5123,
            "count" : 1962,
            "type" : "SCALAR"
        },
        {
            "bufferView" : 29,
            "componentType" : 5126,
            "count" : 250,
            "max" : [
                2.9279866218566895,
                9.08494758605957,
                1
            ],
            "min" : [
                -0.7667868137359619,
                1.3539453744888306,
                -1
            ],
            "type" : "VEC3"
        },
        {
            "bufferView" : 30,
            "componentType" : 5126,
            "count" : 250,
            "type" : "VEC3"
        },
        {
            "bufferView" : 31,
            "componentType" : 5126,
            "count" : 250,
            "type" : "VEC2"
        },
        {
            "bufferView" : 32,
            "componentType" : 5123,
            "count" : 420,
            "type" : "SCALAR"
        }
    ],
    "bufferViews" : [
        {
            "buffer" : 0,
            "byteLength" : 2328,
            "byteOffset" : 0
        },
        {
            "buffer" : 0,
            "byteLength" : 2328,
            "byteOffset" : 2328
        },
        {
            "buffer" : 0,
            "byteLength" : 2304,
            "byteOffset" : 4656
        },
        {
            "buffer" : 0,
            "byteLength" : 1644,
            "byteOffset" : 6960
        },
        {
            "buffer" : 0,
            "byteLength" : 1644,
            "byteOffset" : 8604
        },
        {
            "buffer" : 0,
            "byteLength" : 792,
            "byteOffset" : 10248
        },
        {
            "buffer" : 0,
            "byteLength" : 1296,
            "byteOffset" : 11040
        },
        {
            "buffer" : 0,
            "byteLength" : 1296,
            "byteOffset" : 12336
        },
        {
            "buffer" : 0,
            "byteLength" : 1044,
            "byteOffset" : 13632
        },
        {
            "buffer" : 0,
            "byteLength" : 480,
            "byteOffset" : 14676
        },
        {
            "buffer" : 0,
            "byteLength" : 480,
            "byteOffset" : 15156
        },
        {
            "buffer" : 0,
            "byteLength" : 336,
            "byteOffset" : 15636
        },
        {
            "buffer" : 0,
            "byteLength" : 240,
            "byteOffset" : 15972
        },
        {
            "buffer" : 0,
            "byteLength" : 240,
            "byteOffset" : 16212
        },
        {
            "buffer" : 0,
            "byteLength" : 108,
            "byteOffset" : 16452
        },
        {
            "buffer" : 0,
            "byteLength" : 1344,
            "byteOffset" : 16560
        },
        {
            "buffer" : 0,
            "byteLength" : 1344,
            "byteOffset" : 17904
        },
        {
            "buffer" : 0,
            "byteLength" : 1056,
            "byteOffset" : 19248
        },
        {
            "buffer" : 0,
            "byteLength" : 2904,
            "byteOffset" : 20304
        },
        {
            "buffer" : 0,
            "byteLength" : 2904,
            "byteOffset" : 23208
        },
        {
            "buffer" : 0,
            "byteLength" : 1936,
            "byteOffset" : 26112
        },
        {
            "buffer" : 0,
            "byteLength" : 840,
            "byteOffset" : 28048
        },
        {
            "buffer" : 0,
            "byteLength" : 2904,
            "byteOffset" : 28888
        },
        {
            "buffer" : 0,
            "byteLength" : 2904,
            "byteOffset" : 31792
        },
        {
            "buffer" : 0,
            "byteLength" : 1936,
            "byteOffset" : 34696
        },
        {
            "buffer" : 0,
            "byteLength" : 6780,
            "byteOffset" : 36632
        },
        {
            "buffer" : 0,
            "byteLength" : 6780,
            "byteOffset" : 43412
        },
        {
            "buffer" : 0,
            "byteLength" : 4520,
            "byteOffset" : 50192
        },
        {
            "buffer" : 0,
            "byteLength" : 3924,
            "byteOffset" : 54712
        },
        {
            "buffer" : 0,
            "byteLength" : 3000,
            "byteOffset" : 58636
        },
        {
            "buffer" : 0,
            "byteLength" : 3000,
            "byteOffset" : 61636
        },
        {
            "buffer" : 0,
            "byteLength" : 2000,
            "byteOffset" : 64636
        },
        {
            "buffer" : 0,
            "byteLength" : 840,
            "byteOffset" : 66636
        }
    ],
    "buffers" : [
        {
            "byteLength" : 67476,
            "uri" : "Smiley_Outlined.bin"
        }
    ]
}
