{
    "asset" : {
        "generator" : "Khronos glTF Blender I/O v1.8.19",
        "version" : "2.0"
    },
    "scene" : 0,
    "scenes" : [
        {
            "name" : "Scene",
            "nodes" : [
                0,
                1,
                2,
                3,
                4
            ]
        }
    ],
    "nodes" : [
        {
            "mesh" : 0,
            "name" : "Cylinder.129",
            "rotation" : [
                -0.7071068286895752,
                0,
                0,
                0.7071067094802856
            ],
            "scale" : [
                0.43431979417800903,
                0.43431979417800903,
                0.43431979417800903
            ],
            "translation" : [
                0,
                0.5714600086212158,
                0
            ]
        },
        {
            "mesh" : 1,
            "name" : "Cube",
            "scale" : [
                -0.14452089369297028,
                -0.034343261271715164,
                0.012337060645222664
            ],
            "translation" : [
                0.16073495149612427,
                0.8685719966888428,
                0.0037356442771852016
            ]
        },
        {
            "mesh" : 2,
            "name" : "Cube.001",
            "scale" : [
                -0.14452089369297028,
                -0.034343261271715164,
                0.012337060645222664
            ],
            "translation" : [
                -0.15513822436332703,
                0.8692127466201782,
                0.0014852555468678474
            ]
        },
        {
            "mesh" : 3,
            "name" : "Cylinder",
            "rotation" : [
                0.7071068286895752,
                0,
                0,
                0.7071068286895752
            ],
            "scale" : [
                0.4699999988079071,
                0.14000004529953003,
                0.4699999988079071
            ],
            "translation" : [
                0,
                0.5741697549819946,
                -0.14284642040729523
            ]
        },
        {
            "mesh" : 4,
            "name" : "Cube.002",
            "scale" : [
                -0.14452089369297028,
                -0.034343261271715164,
                0.012337060645222664
            ],
            "translation" : [
                0.16073495149612427,
                0.5492482781410217,
                0.0037356442771852016
            ]
        }
    ],
    "materials" : [
        {
            "doubleSided" : true,
            "name" : "Yellow",
            "pbrMetallicRoughness" : {
                "baseColorFactor" : [
                    0.7654275894165039,
                    0.8000000715255737,
                    0.019433744251728058,
                    1
                ],
                "metallicFactor" : 0,
                "roughnessFactor" : 0.5
            }
        },
        {
            "doubleSided" : true,
            "name" : "oeils",
            "pbrMetallicRoughness" : {
                "baseColorFactor" : [
                    0.0802198275923729,
                    0.04970657452940941,
                    0.012286489829421043,
                    0
                ],
                "metallicFactor" : 0,
                "roughnessFactor" : 0.690034806728363
            }
        },
        {
            "doubleSided" : true,
            "name" : "Red",
            "pbrMetallicRoughness" : {
                "baseColorFactor" : [
                    0.8000000715255737,
                    0,
                    0.0015051120426505804,
                    1
                ],
                "metallicFactor" : 0,
                "roughnessFactor" : 0.5
            }
        }
    ],
    "meshes" : [
        {
            "name" : "Cylinder.042",
            "primitives" : [
                {
                    "attributes" : {
                        "POSITION" : 0,
                        "NORMAL" : 1
                    },
                    "indices" : 2,
                    "material" : 0
                },
                {
                    "attributes" : {
                        "POSITION" : 3,
                        "NORMAL" : 4
                    },
                    "indices" : 5,
                    "material" : 1
                }
            ]
        },
        {
            "name" : "Cube.001",
            "primitives" : [
                {
                    "attributes" : {
                        "POSITION" : 6,
                        "NORMAL" : 7,
                        "TEXCOORD_0" : 8
                    },
                    "indices" : 9,
                    "material" : 2
                }
            ]
        },
        {
            "name" : "Cube.002",
            "primitives" : [
                {
                    "attributes" : {
                        "POSITION" : 10,
                        "NORMAL" : 11,
                        "TEXCOORD_0" : 12
                    },
                    "indices" : 9,
                    "material" : 2
                }
            ]
        },
        {
            "name" : "Cylinder",
            "primitives" : [
                {
                    "attributes" : {
                        "POSITION" : 13,
                        "NORMAL" : 14,
                        "TEXCOORD_0" : 15
                    },
                    "indices" : 16,
                    "material" : 2
                }
            ]
        },
        {
            "name" : "Cube.003",
            "primitives" : [
                {
                    "attributes" : {
                        "POSITION" : 17,
                        "NORMAL" : 18,
                        "TEXCOORD_0" : 19
                    },
                    "indices" : 20,
                    "material" : 2
                }
            ]
        }
    ],
    "accessors" : [
        {
            "bufferView" : 0,
            "componentType" : 5126,
            "count" : 194,
            "max" : [
                1,
                0.4604901969432831,
                1
            ],
            "min" : [
                -1,
                -7.794731970989233e-09,
                -1
            ],
            "type" : "VEC3"
        },
        {
            "bufferView" : 1,
            "componentType" : 5126,
            "count" : 194,
            "type" : "VEC3"
        },
        {
            "bufferView" : 2,
            "componentType" : 5123,
            "count" : 1152,
            "type" : "SCALAR"
        },
        {
            "bufferView" : 3,
            "componentType" : 5126,
            "count" : 318,
            "max" : [
                0.5749760866165161,
                0.048038776963949203,
                0.6172375082969666
            ],
            "min" : [
                -0.5749760866165161,
                -0.03729450702667236,
                -0.7416735291481018
            ],
            "type" : "VEC3"
        },
        {
            "bufferView" : 4,
            "componentType" : 5126,
            "count" : 318,
            "type" : "VEC3"
        },
        {
            "bufferView" : 5,
            "componentType" : 5123,
            "count" : 1668,
            "type" : "SCALAR"
        },
        {
            "bufferView" : 6,
            "componentType" : 5126,
            "count" : 242,
            "max" : [
                0.6946530342102051,
                9.392218589782715,
                1
            ],
            "min" : [
                -0.629169225692749,
                0.2812741994857788,
                -1
            ],
            "type" : "VEC3"
        },
        {
            "bufferView" : 7,
            "componentType" : 5126,
            "count" : 242,
            "type" : "VEC3"
        },
        {
            "bufferView" : 8,
            "componentType" : 5126,
            "count" : 242,
            "type" : "VEC2"
        },
        {
            "bufferView" : 9,
            "componentType" : 5123,
            "count" : 420,
            "type" : "SCALAR"
        },
        {
            "bufferView" : 10,
            "componentType" : 5126,
            "count" : 242,
            "max" : [
                0.6946530342102051,
                9.392218589782715,
                1
            ],
            "min" : [
                -0.629169225692749,
                0.2812741994857788,
                -1
            ],
            "type" : "VEC3"
        },
        {
            "bufferView" : 11,
            "componentType" : 5126,
            "count" : 242,
            "type" : "VEC3"
        },
        {
            "bufferView" : 12,
            "componentType" : 5126,
            "count" : 242,
            "type" : "VEC2"
        },
        {
            "bufferView" : 13,
            "componentType" : 5126,
            "count" : 565,
            "max" : [
                1,
                1,
                1.0000001192092896
            ],
            "min" : [
                -1,
                -1,
                -0.9999998807907104
            ],
            "type" : "VEC3"
        },
        {
            "bufferView" : 14,
            "componentType" : 5126,
            "count" : 565,
            "type" : "VEC3"
        },
        {
            "bufferView" : 15,
            "componentType" : 5126,
            "count" : 565,
            "type" : "VEC2"
        },
        {
            "bufferView" : 16,
            "componentType" : 5123,
            "count" : 1962,
            "type" : "SCALAR"
        },
        {
            "bufferView" : 17,
            "componentType" : 5126,
            "count" : 250,
            "max" : [
                2.9279866218566895,
                9.08494758605957,
                1
            ],
            "min" : [
                -0.7667868137359619,
                1.3539453744888306,
                -1
            ],
            "type" : "VEC3"
        },
        {
            "bufferView" : 18,
            "componentType" : 5126,
            "count" : 250,
            "type" : "VEC3"
        },
        {
            "bufferView" : 19,
            "componentType" : 5126,
            "count" : 250,
            "type" : "VEC2"
        },
        {
            "bufferView" : 20,
            "componentType" : 5123,
            "count" : 420,
            "type" : "SCALAR"
        }
    ],
    "bufferViews" : [
        {
            "buffer" : 0,
            "byteLength" : 2328,
            "byteOffset" : 0
        },
        {
            "buffer" : 0,
            "byteLength" : 2328,
            "byteOffset" : 2328
        },
        {
            "buffer" : 0,
            "byteLength" : 2304,
            "byteOffset" : 4656
        },
        {
            "buffer" : 0,
            "byteLength" : 3816,
            "byteOffset" : 6960
        },
        {
            "buffer" : 0,
            "byteLength" : 3816,
            "byteOffset" : 10776
        },
        {
            "buffer" : 0,
            "byteLength" : 3336,
            "byteOffset" : 14592
        },
        {
            "buffer" : 0,
            "byteLength" : 2904,
            "byteOffset" : 17928
        },
        {
            "buffer" : 0,
            "byteLength" : 2904,
            "byteOffset" : 20832
        },
        {
            "buffer" : 0,
            "byteLength" : 1936,
            "byteOffset" : 23736
        },
        {
            "buffer" : 0,
            "byteLength" : 840,
            "byteOffset" : 25672
        },
        {
            "buffer" : 0,
            "byteLength" : 2904,
            "byteOffset" : 26512
        },
        {
            "buffer" : 0,
            "byteLength" : 2904,
            "byteOffset" : 29416
        },
        {
            "buffer" : 0,
            "byteLength" : 1936,
            "byteOffset" : 32320
        },
        {
            "buffer" : 0,
            "byteLength" : 6780,
            "byteOffset" : 34256
        },
        {
            "buffer" : 0,
            "byteLength" : 6780,
            "byteOffset" : 41036
        },
        {
            "buffer" : 0,
            "byteLength" : 4520,
            "byteOffset" : 47816
        },
        {
            "buffer" : 0,
            "byteLength" : 3924,
            "byteOffset" : 52336
        },
        {
            "buffer" : 0,
            "byteLength" : 3000,
            "byteOffset" : 56260
        },
        {
            "buffer" : 0,
            "byteLength" : 3000,
            "byteOffset" : 59260
        },
        {
            "buffer" : 0,
            "byteLength" : 2000,
            "byteOffset" : 62260
        },
        {
            "buffer" : 0,
            "byteLength" : 840,
            "byteOffset" : 64260
        }
    ],
    "buffers" : [
        {
            "byteLength" : 65100,
            "uri" : "Smiley_Outlined.bin"
        }
    ]
}
