{
    "asset" : {
        "generator" : "Khronos glTF Blender I/O v1.8.19",
        "version" : "2.0"
    },
    "scene" : 0,
    "scenes" : [
        {
            "name" : "Scene",
            "nodes" : [
                0
            ]
        }
    ],
    "nodes" : [
        {
            "mesh" : 0,
            "name" : "Cylinder.129",
            "rotation" : [
                -0.7071068286895752,
                0,
                0,
                0.7071067094802856
            ],
            "scale" : [
                0.43431979417800903,
                0.43431979417800903,
                0.43431979417800903
            ],
            "translation" : [
                0,
                0.5714600086212158,
                0
            ]
        }
    ],
    "materials" : [
        {
            "doubleSided" : true,
            "name" : "Yellow",
            "pbrMetallicRoughness" : {
                "baseColorFactor" : [
                    0.7654275894165039,
                    0.8000000715255737,
                    0.019433744251728058,
                    1
                ],
                "metallicFactor" : 0,
                "roughnessFactor" : 0.5
            }
        },
        {
            "doubleSided" : true,
            "name" : "oeils",
            "pbrMetallicRoughness" : {
                "baseColorFactor" : [
                    0.0802198275923729,
                    0.04970657452940941,
                    0.012286489829421043,
                    0
                ],
                "metallicFactor" : 0,
                "roughnessFactor" : 0.690034806728363
            }
        }
    ],
    "meshes" : [
        {
            "name" : "Cylinder.042",
            "primitives" : [
                {
                    "attributes" : {
                        "POSITION" : 0,
                        "NORMAL" : 1
                    },
                    "indices" : 2,
                    "material" : 0
                },
                {
                    "attributes" : {
                        "POSITION" : 3,
                        "NORMAL" : 4
                    },
                    "indices" : 5,
                    "material" : 1
                }
            ]
        }
    ],
    "accessors" : [
        {
            "bufferView" : 0,
            "componentType" : 5126,
            "count" : 194,
            "max" : [
                1,
                0.4604901969432831,
                1
            ],
            "min" : [
                -1,
                -7.794731970989233e-09,
                -1
            ],
            "type" : "VEC3"
        },
        {
            "bufferView" : 1,
            "componentType" : 5126,
            "count" : 194,
            "type" : "VEC3"
        },
        {
            "bufferView" : 2,
            "componentType" : 5123,
            "count" : 1152,
            "type" : "SCALAR"
        },
        {
            "bufferView" : 3,
            "componentType" : 5126,
            "count" : 318,
            "max" : [
                0.5749760866165161,
                0.048038776963949203,
                0.6172375082969666
            ],
            "min" : [
                -0.5749760866165161,
                -0.03729450702667236,
                -0.7416735291481018
            ],
            "type" : "VEC3"
        },
        {
            "bufferView" : 4,
            "componentType" : 5126,
            "count" : 318,
            "type" : "VEC3"
        },
        {
            "bufferView" : 5,
            "componentType" : 5123,
            "count" : 1668,
            "type" : "SCALAR"
        }
    ],
    "bufferViews" : [
        {
            "buffer" : 0,
            "byteLength" : 2328,
            "byteOffset" : 0
        },
        {
            "buffer" : 0,
            "byteLength" : 2328,
            "byteOffset" : 2328
        },
        {
            "buffer" : 0,
            "byteLength" : 2304,
            "byteOffset" : 4656
        },
        {
            "buffer" : 0,
            "byteLength" : 3816,
            "byteOffset" : 6960
        },
        {
            "buffer" : 0,
            "byteLength" : 3816,
            "byteOffset" : 10776
        },
        {
            "buffer" : 0,
            "byteLength" : 3336,
            "byteOffset" : 14592
        }
    ],
    "buffers" : [
        {
            "byteLength" : 17928,
            "uri" : "Smiley.bin"
        }
    ]
}
