{
    "asset" : {
        "generator" : "Khronos glTF Blender I/O v1.8.19",
        "version" : "2.0"
    },
    "scene" : 0,
    "scenes" : [
        {
            "name" : "Scene",
            "nodes" : [
                0
            ]
        }
    ],
    "nodes" : [
        {
            "mesh" : 0,
            "name" : "Harborn_H_Logo_Connected_Red_Outlined",
            "rotation" : [
                0.7071068286895752,
                -0.7071068286895752,
                0,
                -4.636293837734229e-08
            ],
            "scale" : [
                0.25,
                0.25,
                0.25
            ],
            "translation" : [
                0,
                0.38741686940193176,
                -0.125
            ]
        }
    ],
    "materials" : [
        {
            "alphaMode" : "BLEND",
            "doubleSided" : true,
            "name" : "lambert3SG",
            "pbrMetallicRoughness" : {
                "baseColorFactor" : [
                    1,
                    0,
                    0,
                    1
                ],
                "metallicFactor" : 0
            }
        },
        {
            "alphaMode" : "BLEND",
            "doubleSided" : true,
            "name" : "lambert2SG",
            "pbrMetallicRoughness" : {
                "baseColorFactor" : [
                    0.8100000023841858,
                    1,
                    0.15000000596046448,
                    1
                ],
                "metallicFactor" : 0
            }
        }
    ],
    "meshes" : [
        {
            "name" : "Harborn_H_Logo_Connected_Red_Outlined",
            "primitives" : [
                {
                    "attributes" : {
                        "POSITION" : 0,
                        "NORMAL" : 1,
                        "TEXCOORD_0" : 2
                    },
                    "indices" : 3,
                    "material" : 0
                },
                {
                    "attributes" : {
                        "POSITION" : 4,
                        "NORMAL" : 5,
                        "TEXCOORD_0" : 6
                    },
                    "indices" : 7,
                    "material" : 1
                }
            ]
        }
    ],
    "accessors" : [
        {
            "bufferView" : 0,
            "componentType" : 5126,
            "count" : 1850,
            "max" : [
                1.5588010549545288,
                1.0252599716186523,
                0.0010890000266954303
            ],
            "min" : [
                -1.4241050481796265,
                -1.024999976158142,
                -1.0494240522384644
            ],
            "type" : "VEC3"
        },
        {
            "bufferView" : 1,
            "componentType" : 5126,
            "count" : 1850,
            "type" : "VEC3"
        },
        {
            "bufferView" : 2,
            "componentType" : 5126,
            "count" : 1850,
            "type" : "VEC2"
        },
        {
            "bufferView" : 3,
            "componentType" : 5123,
            "count" : 6000,
            "type" : "SCALAR"
        },
        {
            "bufferView" : 4,
            "componentType" : 5126,
            "count" : 62,
            "max" : [
                1.5247999429702759,
                1,
                -0.02419699914753437
            ],
            "min" : [
                -1.387591004371643,
                -1.0010000467300415,
                -1.024196982383728
            ],
            "type" : "VEC3"
        },
        {
            "bufferView" : 5,
            "componentType" : 5126,
            "count" : 62,
            "type" : "VEC3"
        },
        {
            "bufferView" : 6,
            "componentType" : 5126,
            "count" : 62,
            "type" : "VEC2"
        },
        {
            "bufferView" : 7,
            "componentType" : 5123,
            "count" : 108,
            "type" : "SCALAR"
        }
    ],
    "bufferViews" : [
        {
            "buffer" : 0,
            "byteLength" : 22200,
            "byteOffset" : 0
        },
        {
            "buffer" : 0,
            "byteLength" : 22200,
            "byteOffset" : 22200
        },
        {
            "buffer" : 0,
            "byteLength" : 14800,
            "byteOffset" : 44400
        },
        {
            "buffer" : 0,
            "byteLength" : 12000,
            "byteOffset" : 59200
        },
        {
            "buffer" : 0,
            "byteLength" : 744,
            "byteOffset" : 71200
        },
        {
            "buffer" : 0,
            "byteLength" : 744,
            "byteOffset" : 71944
        },
        {
            "buffer" : 0,
            "byteLength" : 496,
            "byteOffset" : 72688
        },
        {
            "buffer" : 0,
            "byteLength" : 216,
            "byteOffset" : 73184
        }
    ],
    "buffers" : [
        {
            "byteLength" : 73400,
            "uri" : "harborn_logo_outline.bin"
        }
    ]
}
